<?xml version="1.0" encoding="utf-8"?>
<!-- Generator: Adobe Illustrator 19.0.0, SVG Export Plug-In . SVG Version: 6.00 Build 0)  -->
<svg version="1.1" id="Layer_1" xmlns="http://www.w3.org/2000/svg" xmlns:xlink="http://www.w3.org/1999/xlink" x="0px" y="0px"
	 width="330px" height="330px" viewBox="-132 255.6799927 330 330" style="enable-background:new -132 255.6799927 330 330;"
	 xml:space="preserve">
<path style="fill:#A9B0BF;" d="M33,585.6799927c90.9810028,0,165-74.0189819,165-165s-74.0189972-165-165-165
	s-165,74.0190125-165,165S-57.9810028,585.6799927,33,585.6799927z"/>
<path style="fill:#FFFFFF;" d="M-27.6060028,410.0750122l80-80.0020142c2.928009-2.928009,6.7669983-4.3930054,10.6060028-4.3930054
	s7.6780014,1.4639893,10.6060028,4.3940125c5.8580017,5.8569946,5.8580017,15.3549805,0,21.2129822L4.2130127,420.6829834
	l69.3929977,69.3919983c5.8580017,5.8569946,5.8580017,15.355011,0,21.2130127
	c-5.8570023,5.8580017-15.3550034,5.8580017-21.2130051,0l-80-79.9980164
	c-2.8139954-2.8129883-4.3939972-6.6279907-4.3939972-10.6059875C-32,416.70401-30.4199982,412.8880005-27.6060028,410.0750122z"/>
</svg>
