<?xml version="1.0" encoding="utf-8"?>
<!-- Generator: Adobe Illustrator 19.0.0, SVG Export Plug-In . SVG Version: 6.00 Build 0)  -->
<svg version="1.1" id="Layer_1" xmlns="http://www.w3.org/2000/svg" xmlns:xlink="http://www.w3.org/1999/xlink" x="0px" y="0px"
	 width="330px" height="330px" viewBox="-132 255.6799927 330 330" style="enable-background:new -132 255.6799927 330 330;"
	 xml:space="preserve">
<path style="fill:#A9B0BF;" d="M33,255.6799927c-90.9810028,0-165,74.0190125-165,165s74.0189972,165,165,165
	s165-74.0189819,165-165S123.9810028,255.6799927,33,255.6799927z"/>
<path style="fill:#FFFFFF;" d="M93.6060028,431.2850037l-80,80.0019836C10.6779938,514.2150269,6.8390045,515.6799927,3,515.6799927
	s-7.6780014-1.4639893-10.6060028-4.3939819c-5.8580017-5.8569946-5.8580017-15.355011,0-21.2130127l69.3929901-69.3959961
	l-69.3929977-69.3919983c-5.8580017-5.8569946-5.8580017-15.3549805,0-21.2129822
	c5.8570023-5.8580017,15.3550034-5.8580017,21.2130051,0l80,79.9979858
	c2.8139954,2.8130188,4.3939972,6.6280212,4.3939972,10.6060181C98,424.6560059,96.4199982,428.4720154,93.6060028,431.2850037z"/>
</svg>
