<?xml version="1.0"?>
<svg xmlns="http://www.w3.org/2000/svg" height="512px" viewBox="0 0 480 480" width="512px"><g><path d="m424 376h40c3.234375 0 6.152344-1.949219 7.390625-4.9375s.550781-6.429688-1.734375-8.71875l-64-64c-1.5-1.5-3.535156-2.34375-5.65625-2.34375h-320c-2.121094 0-4.15625.84375-5.65625 2.34375l-64 64c-2.285156 2.289062-2.972656 5.730469-1.734375 8.71875s4.15625 4.9375 7.390625 4.9375h40v88h-24v16h448v-16h-56zm-27.3125-64 48 48h-73.375l-48-48zm-313.375 0h201.375l-48 48h-201.375zm-11.3125 64h168c2.121094 0 4.15625-.84375 5.65625-2.34375l50.34375-50.34375v140.6875h-224zm240 88v-140.6875l50.34375 50.34375c1.5 1.5 3.535156 2.34375 5.65625 2.34375h40v88zm0 0" data-original="#000000" class="active-path" data-old_color="#000000" fill="#A2A8B4"/><path d="m145.238281 171.726562c-11.28125-17.875-17.261719-38.585937-17.238281-59.726562 0-7.523438.75-15.027344 2.238281-22.398438l-15.679687-3.203124c-1.703125 8.429687-2.558594 17.003906-2.558594 25.601562-.023438 24.164062 6.808594 47.835938 19.703125 68.273438zm0 0" data-original="#000000" class="active-path" data-old_color="#000000" fill="#A2A8B4"/><path d="m367.71875 120.527344-16-1.054688c-.316406 5.015625-.96875 10-1.957031 14.925782l15.679687 3.203124c1.136719-5.636718 1.898438-11.339843 2.277344-17.074218zm0 0" data-original="#000000" class="active-path" data-old_color="#000000" fill="#A2A8B4"/><path d="m367.71875 103.480469c-2.464844-37.222657-21.066406-71.511719-50.917969-93.878907l-9.601562 12.796876c26.128906 19.5625 42.402343 49.5625 44.5625 82.128906zm0 0" data-original="#000000" class="active-path" data-old_color="#000000" fill="#A2A8B4"/><path d="m240 16c-53.019531 0-96 42.980469-96 96s42.980469 96 96 96 96-42.980469 96-96c-.058594-52.996094-43.003906-95.941406-96-96zm0 176c-44.183594 0-80-35.816406-80-80s35.816406-80 80-80 80 35.816406 80 80c-.046875 44.164062-35.835938 79.953125-80 80zm0 0" data-original="#000000" class="active-path" data-old_color="#000000" fill="#A2A8B4"/><path d="m232 232h16v48h-16zm0 0" data-original="#000000" class="active-path" data-old_color="#000000" fill="#A2A8B4"/><path d="m280 248v32h16v-32c0-8.835938 7.164062-16 16-16h24v-16h-24c-17.671875 0-32 14.328125-32 32zm0 0" data-original="#000000" class="active-path" data-old_color="#000000" fill="#A2A8B4"/><path d="m200 280v-32c0-17.671875-14.328125-32-32-32h-24v16h24c8.835938 0 16 7.164062 16 16v32zm0 0" data-original="#000000" class="active-path" data-old_color="#000000" fill="#A2A8B4"/><path d="m384 160h16v16h-16zm0 0" data-original="#000000" class="active-path" data-old_color="#000000" fill="#A2A8B4"/><path d="m360 256h16v16h-16zm0 0" data-original="#000000" class="active-path" data-old_color="#000000" fill="#A2A8B4"/><path d="m48 144h16v16h-16zm0 0" data-original="#000000" class="active-path" data-old_color="#000000" fill="#A2A8B4"/><path d="m104 256h16v16h-16zm0 0" data-original="#000000" class="active-path" data-old_color="#000000" fill="#A2A8B4"/><path d="m8 240v16h16v16h16v-16h16v-16h-16v-16h-16v16zm0 0" data-original="#000000" class="active-path" data-old_color="#000000" fill="#A2A8B4"/><path d="m424 96v-16h16v-16h-16v-16h-16v16h-16v16h16v16zm0 0" data-original="#000000" class="active-path" data-old_color="#000000" fill="#A2A8B4"/><path d="m448 232v-16h16v-16h-16v-16h-16v16h-16v16h16v16zm0 0" data-original="#000000" class="active-path" data-old_color="#000000" fill="#A2A8B4"/><path d="m88 48v-16h16v-16h-16v-16h-16v16h-16v16h16v16zm0 0" data-original="#000000" class="active-path" data-old_color="#000000" fill="#A2A8B4"/><path d="m0 464h16v16h-16zm0 0" data-original="#000000" class="active-path" data-old_color="#000000" fill="#A2A8B4"/><path d="m270.921875 95.816406c2.105469-8.027344.5-16.574218-4.371094-23.289062-4.875-6.71875-12.507812-10.890625-20.789062-11.375l-3.960938-10.054688-14.878906 5.871094 2.933594 7.4375-14.886719 5.867188-2.9375-7.441407-14.886719 5.863281 2.933594 7.441407-14.886719 5.863281 5.871094 14.886719 7.441406-2.925781 11.734375 29.765624 11.730469 29.777344-7.449219 2.9375 5.863281 14.878906 14.875-5.855468 2.933594 7.445312 14.878906-5.871094-2.925781-7.4375 14.878907-5.867187 2.9375 7.441406 14.886718-5.863281-3.078125-7.816406c10.242188-5.773438 15.753907-17.363282 13.765625-28.953125-1.984375-11.59375-11.039062-20.683594-22.625-22.71875zm6.183594 23.054688c1.167969 2.964844 1.113281 6.269531-.15625 9.191406s-3.648438 5.21875-6.613281 6.386719l-33.496094 13.191406-8.800782-22.328125 33.488282-13.199219c2.960937-1.171875 6.269531-1.117187 9.191406.148438 2.917969 1.269531 5.21875 3.648437 6.386719 6.609375zm-22.105469-34.269532c2.425781 6.164063-.601562 13.128907-6.769531 15.558594l-13.023438 5.128906-13.023437 5.136719-8.800782-22.328125 26.058594-10.265625c6.164063-2.425781 13.128906.601563 15.558594 6.769531zm0 0" data-original="#000000" class="active-path" data-old_color="#000000" fill="#A2A8B4"/></g> </svg>
