<?xml version="1.0" encoding="utf-8"?>
<!-- Generator: Adobe Illustrator 18.0.0, SVG Export Plug-In . SVG Version: 6.00 Build 0)  -->
<!DOCTYPE svg PUBLIC "-//W3C//DTD SVG 1.1//EN" "http://www.w3.org/Graphics/SVG/1.1/DTD/svg11.dtd">
<svg version="1.1" id="Layer_1" xmlns="http://www.w3.org/2000/svg" xmlns:xlink="http://www.w3.org/1999/xlink" x="0px" y="0px"
	 width="314.9px" height="279.7px" viewBox="0 0 314.9 279.7" enable-background="new 0 0 314.9 279.7" xml:space="preserve">
<g>
	<g id="XMLID_8_">
		<path id="XMLID_128_" fill="#CCB375" d="M297.5,235.5h-280c-9.7,0-17.5-8.1-17.5-18V18C0,8.1,7.8,0,17.5,0h280
			c9.6,0,17.5,8.1,17.5,18v199.5C314.9,227.5,307.1,235.5,297.5,235.5"/>
		<path id="XMLID_127_" fill="#7A693C" d="M81.5,157H32.6c-3,0-5.4,2.5-5.4,5.6s2.4,5.6,5.4,5.6h48.9c3,0,5.4-2.5,5.4-5.6
			S84.5,157,81.5,157"/>
		<path id="XMLID_126_" fill="#7A693C" d="M157.5,162.6c0-3.1-2.4-5.6-5.4-5.6h-48.9c-3,0-5.4,2.5-5.4,5.6s2.4,5.6,5.4,5.6H152
			C155,168.2,157.5,165.7,157.5,162.6"/>
		<path id="XMLID_125_" fill="#7A693C" d="M38,185.1h-5.4c-3,0-5.4,2.5-5.4,5.6s2.4,5.6,5.4,5.6H38c3,0,5.4-2.5,5.4-5.6
			S41,185.1,38,185.1"/>
		<path id="XMLID_124_" fill="#7A693C" d="M70.6,185.1H59.7c-3,0-5.4,2.5-5.4,5.6s2.4,5.6,5.4,5.6h10.9c3,0,5.4-2.5,5.4-5.6
			S73.6,185.1,70.6,185.1"/>
		<path id="XMLID_123_" fill="#7A693C" d="M97.7,185.1h-5.4c-3,0-5.4,2.5-5.4,5.6s2.4,5.6,5.4,5.6h5.4c3,0,5.4-2.5,5.4-5.6
			S100.7,185.1,97.7,185.1"/>
		<path id="XMLID_122_" fill="#7A693C" d="M130.3,185.1h-10.9c-3,0-5.4,2.5-5.4,5.6s2.4,5.6,5.4,5.6h10.9c3,0,5.4-2.5,5.4-5.6
			S133.3,185.1,130.3,185.1"/>
		<path id="XMLID_121_" fill="#7A693C" d="M148.2,186.7c-1,1.1-1.6,2.5-1.6,4s0.6,2.9,1.6,4c1,1,2.4,1.6,3.9,1.6s2.8-0.6,3.9-1.6
			c1-1.1,1.6-2.5,1.6-4s-0.6-2.9-1.6-4C153.8,184.6,150.1,184.6,148.2,186.7"/>
		<path id="XMLID_120_" fill="#E74C3D" d="M249.8,173.8c0,18.6-14.6,33.6-32.6,33.6s-32.6-15.1-32.6-33.6s14.6-33.6,32.6-33.6
			S249.8,155.3,249.8,173.8"/>
		<path id="XMLID_119_" fill="#F0C41B" d="M287.8,173.8c0,18.6-14.6,33.6-32.6,33.6s-32.6-15.1-32.6-33.6s14.6-33.6,32.6-33.6
			S287.8,155.3,287.8,173.8"/>
		<path id="XMLID_118_" fill="#F0C41B" d="M112.6,112.2H39.4c-3.8,0-6.8-3.2-6.8-7V51.9c0-3.9,3.1-7,6.8-7h73.3c3.8,0,6.8,3.2,6.8,7
			v53.2C119.5,109,116.4,112.2,112.6,112.2"/>
		<path id="XMLID_115_" fill="#F3D55C" d="M112.6,117.8H39.4c-6.7,0-12.2-5.7-12.2-12.6V51.9c0-7,5.5-12.6,12.2-12.6h73.3
			c6.7,0,12.2,5.7,12.2,12.6v53.2C124.9,112.1,119.4,117.8,112.6,117.8 M39.4,50.5c-0.8,0-1.4,0.6-1.4,1.4v53.2
			c0,0.8,0.6,1.4,1.4,1.4h73.3c0.8,0,1.4-0.6,1.4-1.4V51.9c0-0.8-0.6-1.4-1.4-1.4H39.4z"/>
		<path id="XMLID_114_" fill="#F0C41B" d="M119.5,51.9c0-3.9-3.1-7-6.8-7H86.9H72c-3.8,0-6.8,3.2-6.8,7v15.4v37.8c0,3.9,3,7,6.8,7
			h8.1c3.8,0,6.8-3.2,6.8-7V74.3c0-3.9,3.1-7,6.8-7h19c3.8,0,6.8-3.2,6.8-7V51.9z"/>
		<path id="XMLID_111_" fill="#F3D55C" d="M80.1,117.8H72c-6.7,0-12.2-5.7-12.2-12.6V51.9c0-7,5.5-12.6,12.2-12.6h40.7
			c6.7,0,12.2,5.7,12.2,12.6v8.4c0,7-5.5,12.6-12.2,12.6h-19c-0.8,0-1.4,0.6-1.4,1.4v30.8C92.3,112.1,86.8,117.8,80.1,117.8
			 M72,50.5c-0.8,0-1.4,0.6-1.4,1.4v53.2c0,0.8,0.6,1.4,1.4,1.4h8.1c0.8,0,1.4-0.6,1.4-1.4V74.3c0-7,5.5-12.6,12.2-12.6h19
			c0.8,0,1.4-0.6,1.4-1.4v-8.4c0-0.8-0.6-1.4-1.4-1.4H72z"/>
		<line id="XMLID_110_" fill="none" x1="86.9" y1="89.7" x2="119.5" y2="89.7"/>
		<path id="XMLID_109_" fill="#F3D55C" d="M119.5,95.3H86.9c-3,0-5.4-2.5-5.4-5.6s2.4-5.6,5.4-5.6h32.6c3,0,5.4,2.5,5.4,5.6
			S122.5,95.3,119.5,95.3"/>
		<line id="XMLID_108_" fill="none" x1="65.2" y1="67.3" x2="32.6" y2="67.3"/>
		<path id="XMLID_107_" fill="#F3D55C" d="M65.2,72.9H32.6c-3,0-5.4-2.5-5.4-5.6s2.4-5.6,5.4-5.6h32.6c3,0,5.4,2.5,5.4,5.6
			S68.2,72.9,65.2,72.9"/>
		<line id="XMLID_106_" fill="none" x1="65.2" y1="89.7" x2="32.6" y2="89.7"/>
		<path id="XMLID_105_" fill="#F3D55C" d="M65.2,95.3H32.6c-3,0-5.4-2.5-5.4-5.6s2.4-5.6,5.4-5.6h32.6c3,0,5.4,2.5,5.4,5.6
			S68.2,95.3,65.2,95.3"/>
	</g>
	<circle fill="#1BCB1B" cx="157.5" cy="217.9" r="58.8"/>
	<path fill="#FFFFFF" d="M145,238.1c0.6-0.8,1-1.3,1.4-1.7c12.7-13,25.5-26,38.2-39c1-1,1.9-2,3.5-1.8c1.3,0.1,2.2,0.8,2.7,1.9
		c0.6,1.2,0.5,2.4-0.3,3.5c-0.3,0.4-0.7,0.8-1.1,1.2c-13.8,14.1-27.6,28.1-41.3,42.2c-2.4,2.4-3.9,2.4-6.3,0.1
		c-5.6-5.7-11.2-11.4-16.8-17.2c-1.6-1.6-1.8-3.6-0.5-5.1c1.5-1.7,3.4-1.7,5.1,0.1c4.7,4.8,9.4,9.5,14.1,14.3
		C144.1,236.9,144.5,237.3,145,238.1z"/>
</g>
</svg>
