<?xml version="1.0" encoding="utf-8"?>
<!-- Generator: Adobe Illustrator 18.0.0, SVG Export Plug-In . SVG Version: 6.00 Build 0)  -->
<!DOCTYPE svg PUBLIC "-//W3C//DTD SVG 1.1//EN" "http://www.w3.org/Graphics/SVG/1.1/DTD/svg11.dtd">
<svg version="1.1" id="Layer_1" xmlns="http://www.w3.org/2000/svg" xmlns:xlink="http://www.w3.org/1999/xlink" x="0px" y="0px"
	 width="279px" height="279.7px" viewBox="0 0 279 279.7" enable-background="new 0 0 279 279.7" xml:space="preserve">
<g>
	<g>
		<path fill="#03AA6F" d="M240.6,43.3l-14.4,9.6l-24.1-4.8l-14.4-4.8l-19.2,4.8l-14.4-4.8l9.6-19.2h19.2l18.9-9.4
			C216.2,21.8,229.4,31.5,240.6,43.3z"/>
		<path fill="#03AA6F" d="M129.9,24.1l-4.8,14.4l-14.4,4.8L96.2,67.4L72.2,81.8l-33.7,4.8V101l9.6,9.6v19.2l-14.4-9.6l-14.4-9.6
			l-8.4-25.2c14.4-34.3,42-61.5,76.5-75.4l13.7,9.1L129.9,24.1z"/>
		<polygon fill="#03AA6F" points="139.5,158.8 134.7,182.8 115.5,202.1 115.5,216.5 96.2,231 96.2,255 81.8,250.2 72.2,226.1 
			72.2,178 48.1,173.2 38.5,154 38.5,139.5 48.1,129.9 62.5,115.5 72.2,134.7 105.8,134.7 120.3,158.8 		"/>
		<path fill="#03AA6F" d="M261.2,71.4c26.3,46.9,23.3,104.6-7.7,148.5l-13-13v-19.2l-9.6-19.2l-9.6-19.2v-19.2l-14.4-9.6l-19.2,4.8
			l-33.7-14.4L149.1,77l14.4-14.4h28.9l9.6,14.4l28.9,4.8l28.9-9.6L261.2,71.4z"/>
	</g>
	<path fill="#86DAF1" d="M168.4,48.1l19.2-4.8l14.4,4.8l24.1,4.8l14.4-9.6c8.1,8.4,15,17.9,20.7,28.1l-1.4,0.8l-28.9,9.6L202.1,77
		l-9.6-14.4h-28.9L149.1,77l4.8,33.7l33.7,14.4l19.2-4.8l14.4,9.6v19.2l9.6,19.2l9.6,19.2v19.2l13,13c-44.4,63-131.5,78-194.5,33.5
		C5.6,215.7-14.4,145.9,10.9,85.5l8.4,25.2l14.4,9.6l14.4,9.6l-9.6,9.6V154l9.6,19.2l24.1,4.8v48.1l9.6,24.1l14.4,4.8V231l19.2-14.4
		v-14.4l19.2-19.2l4.8-24.1h-19.2l-14.4-24.1H72.2l-9.6-19.2l-14.4,14.4v-19.2l-9.6-9.6V86.6l33.7-4.8l24.1-14.4l14.4-24.1l14.4-4.8
		l4.8-14.4L101,19.2l-13.7-9.1c37-14.9,78.6-13.3,114.3,4.5l-18.9,9.4h-19.2l-9.6,19.2L168.4,48.1z"/>
</g>
</svg>
