<?xml version="1.0" encoding="utf-8"?>
<!-- Generator: Adobe Illustrator 18.0.0, SVG Export Plug-In . SVG Version: 6.00 Build 0)  -->
<!DOCTYPE svg PUBLIC "-//W3C//DTD SVG 1.1//EN" "http://www.w3.org/Graphics/SVG/1.1/DTD/svg11.dtd">
<svg version="1.1" id="Layer_1" xmlns="http://www.w3.org/2000/svg" xmlns:xlink="http://www.w3.org/1999/xlink" x="0px" y="0px"
	 width="279px" height="279.7px" viewBox="0 0 279 279.7" enable-background="new 0 0 279 279.7" xml:space="preserve">
<g>
	<g>
		<path fill="#88B337" d="M230.8,181.6c0-2.1-0.6-4.2-1.7-6l-10.7-17.3c-1.3-2.7-2-5.6-2-8.6V96.6c0-34.5-28-62.5-62.5-62.5H125
			c-34.5,0-62.5,28-62.5,62.5v53.2c0,3-0.7,5.9-2,8.6l-10.7,17.3c-1.1,1.8-1.7,3.9-1.7,6l0,0c0,6.2,5,11.2,11.2,11.2h160.3
			C225.8,192.8,230.8,187.8,230.8,181.6z"/>
		<polygon fill="#88B337" points="153.9,34.1 177.9,0.4 101,0.4 125,34.1 125,43.7 153.9,43.7 		"/>
	</g>
	<path fill="#88B337" d="M229.2,175.6l-10.7-17.3c-1.3-2.7-2-5.6-2-8.6V96.6c0-13.9-4.6-27.5-13.1-38.5
		c-12.8,70.7-58,111.5-100.5,134.7h116.9c6.2,0,11.3-5,11.3-11.2C230.9,179.5,230.4,177.4,229.2,175.6L229.2,175.6z"/>
	<path fill="#FFFFFF" d="M163.5,106.2v-3.1c0-8.9-7.2-16.1-16.2-16.2h-3.1v-9.6h-9.6V87h-3.1c-8.9,0-16.2,7.2-16.2,16.1
		c0,6.8,4.2,12.8,10.5,15.2l8.8,3.3v18.3h-3.1c-3.6,0-6.5-2.9-6.5-6.5l0,0v-3.1h-9.6v3.1c0,8.9,7.2,16.1,16.2,16.2h15.8
		c8.9,0,16.2-7.2,16.2-16.1c0-6.8-4.2-12.8-10.5-15.2l-8.8-3.3V96.6h3.1c3.6,0,6.5,2.9,6.5,6.5l0,0v3.1
		C153.9,106.2,163.5,106.2,163.5,106.2z M149.7,127.2c2.5,1,4.2,3.4,4.2,6.2c0,3.6-2.9,6.5-6.5,6.5l0,0h-3.1v-14.7L149.7,127.2z
		 M134.7,111.3l-5.4-2c-2.5-1-4.2-3.4-4.2-6.2c0-3.6,2.9-6.5,6.5-6.5l0,0h3.1V111.3z"/>
	<g>
		<path fill="#FDB62F" d="M235.6,48.5L235.6,48.5c-1.6-9.9-9.4-17.6-19.2-19.2l0,0c9.9-1.6,17.6-9.4,19.2-19.2l0,0
			c1.6,9.9,9.4,17.6,19.2,19.2l0,0C245,30.9,237.3,38.6,235.6,48.5z"/>
		<path fill="#FDB62F" d="M19.2,144.7L19.2,144.7c-1.6-9.9-9.4-17.6-19.2-19.2l0,0c9.9-1.6,17.6-9.4,19.2-19.2l0,0
			c1.6,9.9,9.4,17.6,19.2,19.2l0,0C28.6,127.1,20.9,134.8,19.2,144.7z"/>
	</g>
	<path fill="#FEC9A3" d="M276.9,168.2c-3.9-6.6-12.4-9-19.2-5.3L189.4,192c-1.2,0.5-2.5,0.8-3.8,0.8H101c-5.3,0-9.6-4.3-9.6-9.6
		s4.3-9.6,9.6-9.6h38.5c15.9,0,28.9-12.9,28.9-28.9h-80c-13.3,0-25.8,6-34.1,16.4L24,197.6l34,62.2l130.7-31.4
		c5.6-1.3,11.1-3.3,16.3-6l67.3-34.5C278.9,183.8,281,174.9,276.9,168.2z"/>
	<path fill="#FEC9A3" d="M47.2,240L58,259.8l130.7-31.4c5.6-1.3,11.1-3.3,16.3-6l36.4-18.7C180.8,222.3,100.5,233.8,47.2,240z"/>
	<polygon fill="#4398D1" points="0,192.8 0,279.3 62.5,279.3 76.9,264.9 19.2,178.3 	"/>
	<path fill="#4398D1" d="M0,279.3h62.5l14.4-14.4L66.4,249C45,257.9,22.7,264.5,0,268.8V279.3z"/>
	<circle fill="#D9D9D9" cx="43.3" cy="255.3" r="9.6"/>
</g>
</svg>
