<?xml version="1.0" encoding="utf-8"?>
<!-- Generator: Adobe Illustrator 18.0.0, SVG Export Plug-In . SVG Version: 6.00 Build 0)  -->
<!DOCTYPE svg PUBLIC "-//W3C//DTD SVG 1.1//EN" "http://www.w3.org/Graphics/SVG/1.1/DTD/svg11.dtd">
<svg version="1.1" id="Layer_1" xmlns="http://www.w3.org/2000/svg" xmlns:xlink="http://www.w3.org/1999/xlink" x="0px" y="0px"
	 width="297.3px" height="279.7px" viewBox="0 0 297.3 279.7" enable-background="new 0 0 297.3 279.7" xml:space="preserve">
<g>
	<path fill="#E0F4FF" d="M282.4,0H14.8C6.7,0,0,6.7,0,14.8V265c0,8.2,6.7,14.8,14.8,14.8h267.6c8.2,0,14.8-6.7,14.8-14.8V14.8
		C297.3,6.7,290.6,0,282.4,0z"/>
	<path fill="#E0F4FF" d="M148.6,279.8h133.8c8.2,0,14.8-6.7,14.8-14.8V74.7H148.6V279.8z"/>
	<path fill="#515E84" d="M297.3,14.8c0-8.2-6.7-14.8-14.8-14.8H14.8C6.7,0,0,6.7,0,14.8v59.9h297.3V14.8z"/>
	<path fill="#515E84" d="M282.4,0H148.6v74.7h148.6V14.8C297.3,6.7,290.6,0,282.4,0z"/>
	<path fill="#F4CA00" d="M235.4,33c0,6.5-5.3,11.9-11.9,11.9c-6.5,0-11.9-5.3-11.9-11.9c0-6.5,5.3-11.9,11.9-11.9
		C230.1,21.2,235.4,26.5,235.4,33z"/>
	<path fill="#5BCB80" d="M270.5,33c0,6.5-5.3,11.9-11.9,11.9c-6.5,0-11.9-5.3-11.9-11.9c0-6.5,5.3-11.9,11.9-11.9
		C265.2,21.2,270.5,26.5,270.5,33z"/>
	<path fill="#F40238" d="M200.2,33c0,6.5-5.3,11.9-11.9,11.9c-6.5,0-11.9-5.3-11.9-11.9c0-6.5,5.3-11.9,11.9-11.9
		C194.9,21.2,200.2,26.5,200.2,33z"/>
	<path fill="#A4F03E" d="M245.8,226.1c-4.8,0-8.7-3.9-8.7-8.7c0-48.8-39.7-88.4-88.4-88.4s-88.4,39.7-88.4,88.4
		c0,4.8-3.9,8.7-8.7,8.7s-8.7-3.9-8.7-8.7c0-58.4,47.5-105.8,105.8-105.8S254.5,159,254.5,217.4
		C254.5,222.2,250.6,226.1,245.8,226.1z"/>
	<path fill="#A4F03E" d="M148.6,111.5V129c48.8,0,88.4,39.7,88.4,88.4c0,4.8,3.9,8.7,8.7,8.7c4.8,0,8.7-3.9,8.7-8.7
		C254.5,159,207,111.5,148.6,111.5z"/>
	<path fill="#515E84" d="M148.6,198.1c-10.6,0-19.3,8.7-19.3,19.3c0,10.6,8.7,19.3,19.3,19.3c10.6,0,19.3-8.7,19.3-19.3
		C167.9,206.7,159.3,198.1,148.6,198.1z"/>
	<path fill="#515E84" d="M148.6,236.7c10.6,0,19.3-8.7,19.3-19.3c0-4.2-1.4-8.2-3.7-11.4l16.8-40.5c1.8-4.4-0.3-9.5-4.7-11.4
		c-4.4-1.8-9.5,0.3-11.4,4.7l-16.3,39.3c0,0,0,0,0,0V236.7z"/>
</g>
</svg>
