<?xml version="1.0" encoding="utf-8"?>
<!-- Generator: Adobe Illustrator 18.0.0, SVG Export Plug-In . SVG Version: 6.00 Build 0)  -->
<!DOCTYPE svg PUBLIC "-//W3C//DTD SVG 1.1//EN" "http://www.w3.org/Graphics/SVG/1.1/DTD/svg11.dtd">
<svg version="1.1" id="Layer_1" xmlns="http://www.w3.org/2000/svg" xmlns:xlink="http://www.w3.org/1999/xlink" x="0px" y="0px"
	 width="303.4px" height="279.7px" viewBox="0 0 303.4 279.7" enable-background="new 0 0 303.4 279.7" xml:space="preserve">
<g>
	<path fill="#8EBA49" d="M132.1,92.2c-2.8,0-5.7,0-8.6,0.3H123c-53.3,5-97.1,55.7-97.1,112.1c0,65.5,60.9,73.2,106.2,73.2
		c45,0,97.5-6.8,104.9-60.6C244.6,154,194.6,92.2,132.1,92.2z"/>
	<path fill="#8EBA49" d="M237,217.1c-7.3,53.8-59.8,60.6-104.9,60.6V92.2C194.6,92.2,244.6,154,237,217.1z"/>
	<path fill="#8EBA49" d="M188.5,27.3l-16.3,49.3H92L75.7,27.3c-1-2.4-0.5-5.2,1-7.3c1.6-2.1,4.1-3.4,6.7-3.4h25.8
		c3.3-9.4,12.4-16.3,22.9-16.3s19.5,6.8,22.9,16.3h25.8c2.6,0,5,1.3,6.7,3.4C189,22.1,189.5,24.9,188.5,27.3z"/>
	<path fill="#8EBA49" d="M188.5,27.3l-16.3,49.3h-40.2V0.3c10.6,0,19.5,6.8,22.9,16.3h25.8c2.6,0,5,1.3,6.7,3.4
		C189,22.1,189.5,24.9,188.5,27.3z"/>
	<path fill="#FFDA2D" d="M156.4,207c0,10.6-6.7,19.3-16.1,22.8v7.3c0,4.6-3.6,8.1-8.1,8.1c-4.6,0-8.1-3.6-8.1-8.1v-7.2
		c-9.4-3.4-16.4-12.4-16.4-22.9c0-4.6,3.7-8.1,8.1-8.1c4.6,0,8.1,3.6,8.1,8.1c0,4.4,3.7,8.1,8.1,8.1h0.2c4.6-0.2,8-3.7,8-8.1
		c0-4.6-3.4-8-8-8.1H132c-13.3,0-24.4-11.1-24.4-24.4c0-10.7,7-19.7,16.4-22.9v-12c0-4.6,3.6-8.1,8.1-8.1c4.6,0,8.1,3.6,8.1,8.1v12
		c9.4,3.4,16.1,12.4,16.1,22.9c0,4.4-3.6,8.1-8.1,8.1c-4.4,0-8.1-3.7-8.1-8.1c0-4.6-3.4-8-8-8.1H132c-4.4,0-8.1,3.6-8.1,8.1
		c0,4.4,3.7,8.1,8.1,8.1h0.2C145.6,182.8,156.4,193.5,156.4,207z"/>
	<path fill="#FFDA2D" d="M303.4,163.9c0,8.9-7.3,16.3-16.3,16.3l-41.2,16.3l-40.6-16.3c-8.9,0-16.3-7.3-16.3-16.3
		c0-8.9,7.3-16.3,16.3-16.3h81.8C296,147.7,303.4,155,303.4,163.9z"/>
	<path fill="#FFDA2D" d="M303.4,163.9c0,8.9-7.3,16.3-16.3,16.3l-41.2,16.3v-48.8h41.2C296,147.7,303.4,155,303.4,163.9z"/>
	<path fill="#FDBF00" d="M303.4,196.5c0,8.9-7.3,16.3-16.3,16.3L245.9,229l-40.6-16.3c-8.9,0-16.3-7.3-16.3-16.3
		c0-8.9,7.3-16.3,16.3-16.3h81.8C296,180.2,303.4,187.5,303.4,196.5z"/>
	<path fill="#FDBF00" d="M303.4,196.5c0,8.9-7.3,16.3-16.3,16.3L245.9,229v-48.8h41.2C296,180.2,303.4,187.5,303.4,196.5z"/>
	<path fill="#FFDA2D" d="M303.4,229c0,8.9-7.3,16.3-16.3,16.3l-41.2,16.3l-40.6-16.3c-8.9,0-16.3-7.3-16.3-16.3
		c0-8.9,7.3-16.3,16.3-16.3h81.8C296,212.7,303.4,220,303.4,229z"/>
	<path fill="#FFDA2D" d="M303.4,229c0,8.9-7.3,16.3-16.3,16.3l-41.2,16.3v-48.8h41.2C296,212.7,303.4,220,303.4,229z"/>
	<path fill="#FDBF00" d="M303.4,261.5c0,8.9-7.3,16.3-16.3,16.3h-81.8c-8.9,0-16.3-7.3-16.3-16.3c0-8.9,7.3-16.3,16.3-16.3h81.8
		C296,245.2,303.4,252.5,303.4,261.5z"/>
	<path fill="#FDBF00" d="M303.4,261.5c0,8.9-7.3,16.3-16.3,16.3h-41.2v-32.5h41.2C296,245.2,303.4,252.5,303.4,261.5z"/>
	<path fill="#FFDA2D" d="M189,82.1c0,8.9-7.3,16.3-16.3,16.3H91.5c-8.9,0-16.3-7.3-16.3-16.3s7.3-16.3,16.3-16.3h81.3
		C181.7,65.9,189,73.2,189,82.1z"/>
	<g>
		<path fill="#FFDA2D" d="M156.4,207c0,10.6-6.7,19.3-16.1,22.8v7.3c0,4.6-3.6,8.1-8.1,8.1v-30.1c4.6-0.2,8-3.7,8-8.1
			c0-4.6-3.4-8-8-8.1v-16.3C145.6,182.8,156.4,193.5,156.4,207z"/>
		<path fill="#FFDA2D" d="M156.4,174.5c0,4.4-3.6,8.1-8.1,8.1c-4.4,0-8.1-3.7-8.1-8.1c0-4.6-3.4-8-8-8.1v-35c4.6,0,8.1,3.6,8.1,8.1
			v12C149.7,155,156.4,163.9,156.4,174.5z"/>
		<path fill="#FFDA2D" d="M189,82.1c0,8.9-7.3,16.3-16.3,16.3h-40.6V65.9h40.6C181.7,65.9,189,73.2,189,82.1z"/>
	</g>
	<path fill="#E8421C" d="M293.3,37.4L20.7,276.7c-5.2,4.5-13.1,4-17.6-1.1l0,0c-4.5-5.2-4-13.1,1.1-17.6L276.8,18.7
		c5.2-4.5,13.1-4,17.6,1.1v0C298.9,25,298.4,32.9,293.3,37.4z"/>
</g>
</svg>
