<?xml version="1.0" encoding="utf-8"?>
<!-- Generator: Adobe Illustrator 18.0.0, SVG Export Plug-In . SVG Version: 6.00 Build 0)  -->
<!DOCTYPE svg PUBLIC "-//W3C//DTD SVG 1.1//EN" "http://www.w3.org/Graphics/SVG/1.1/DTD/svg11.dtd">
<svg version="1.1" id="Layer_1" xmlns="http://www.w3.org/2000/svg" xmlns:xlink="http://www.w3.org/1999/xlink" x="0px" y="0px"
	 width="269px" height="279.7px" viewBox="0 0 269 279.7" enable-background="new 0 0 269 279.7" xml:space="preserve">
<g>
	<path fill="#ECAF4A" d="M217.1,179.3l23.6,23.6v75.5H33v-75.5l23.6-23.6H217.1z"/>
	<path fill="#D69F44" d="M217.1,179.3h-42.5v99.1h66.1v-75.5L217.1,179.3z"/>
	<path fill="#D18B29" d="M136.9,217.1l37.8-37.8H42.5L4.7,217.1H136.9z"/>
	<path fill="#D18B29" d="M212.4,217.1l-37.8-37.8h56.6l37.8,37.8H212.4z"/>
	<path fill="#FCDD5E" d="M73,106.4c-7.6-12.1-11.6-26-11.6-40.3c0-5.1,0.5-10.1,1.5-15.1l9.3,1.9c-0.9,4.3-1.3,8.8-1.3,13.2
		c0,12.5,3.5,24.7,10.2,35.2L73,106.4z"/>
	<path fill="#FCDD5E" d="M210.9,81.2l-9.3-1.9c0.6-2.9,1-5.8,1.2-8.8l9.4,0.6C212,74.5,211.6,77.9,210.9,81.2z"/>
	<path fill="#FCDD5E" d="M202.8,61.7c-1.3-19.2-10.9-36.9-26.3-48.4l5.7-7.5c17.6,13.2,28.6,33.4,30,55.4L202.8,61.7z"/>
	<path fill="#FFC119" d="M193.5,66.1c0,31.3-25.4,56.6-56.6,56.6S80.2,97.4,80.2,66.1s25.4-56.6,56.6-56.6S193.5,34.8,193.5,66.1z"
		/>
	<path fill="#0093BA" d="M132.2,136.9h9.4v28.3h-9.4V136.9z"/>
	<path fill="#0093BA" d="M169.9,165.2h-9.4v-18.9c0-10.4,8.5-18.9,18.9-18.9h14.2v9.4h-14.2c-5.2,0-9.4,4.2-9.4,9.4V165.2z"/>
	<path fill="#0093BA" d="M113.3,165.2h-9.4v-18.9c0-5.2-4.2-9.4-9.4-9.4H80.2v-9.4h14.2c10.4,0,18.9,8.5,18.9,18.9V165.2z"/>
	<path fill="#EA732D" d="M221.8,94.4h9.4v9.4h-9.4V94.4z"/>
	<path fill="#EA732D" d="M207.7,151h9.4v9.4h-9.4V151z"/>
	<path fill="#EA732D" d="M23.6,85H33v9.4h-9.4V85z"/>
	<path fill="#EA732D" d="M56.6,151h9.4v9.4h-9.4V151z"/>
	<g>
		<path fill="#FFC119" d="M18.9,132.2H9.4v9.4H0v9.4h9.4v9.4h9.4V151h9.4v-9.4h-9.4V132.2z"/>
		<path fill="#FFC119" d="M245.4,56.6v-9.4h9.4v-9.4h-9.4v-9.4H236v9.4h-9.4v9.4h9.4v9.4H245.4z"/>
		<path fill="#FFC119" d="M269,118h-9.4v-9.4h-9.4v9.4h-9.4v9.4h9.4v9.4h9.4v-9.4h9.4V118z"/>
		<path fill="#FFC119" d="M56.6,18.9V9.4h-9.4V0h-9.4v9.4h-9.4v9.4h9.4v9.4h9.4v-9.4H56.6z"/>
	</g>
	<path fill="#EA732D" d="M167.5,66.7c-2.1-5.3-6.8-9.1-12.4-10.1c1.2-4.7,0.3-9.8-2.6-13.7c-2.9-4-7.4-6.4-12.3-6.7l-2.3-5.9
		l-8.8,3.5l1.7,4.4l-8.8,3.5l-1.7-4.4l-8.8,3.5l1.7,4.4l-8.8,3.5l3.5,8.8l4.4-1.7l6.9,17.6l6.9,17.6l-4.4,1.7l3.5,8.8l8.8-3.5
		l1.7,4.4l8.8-3.5l-1.7-4.4l8.8-3.5l1.7,4.4l8.8-3.5l-1.8-4.6C167.4,83,170.5,74.3,167.5,66.7z M158.8,70.1c0.7,1.7,0.7,3.7-0.1,5.4
		c-0.7,1.7-2.2,3.1-3.9,3.8L135,87.1l-5.2-13.2l19.8-7.8C153.2,64.7,157.3,66.5,158.8,70.1L158.8,70.1z M145.7,49.9
		c1.4,3.6-0.4,7.7-4,9.2l-7.7,3l-7.7,3L121.2,52l15.4-6.1C140.2,44.5,144.3,46.3,145.7,49.9z"/>
	<path fill="#FAAC2B" d="M169.2,19.6c15.7,22.5,13,53-6.4,72.4c-19.4,19.4-49.9,22.1-72.4,6.4c12.9,18.6,35.7,27.7,57.9,23.2
		c22.2-4.6,39.5-21.9,44.1-44.1C196.9,55.3,187.8,32.5,169.2,19.6z"/>
</g>
</svg>
